<?xml version="1.0" encoding="utf-8"?>

<!-- Uploaded to: SVG Repo, www.svgrepo.com, Generator: SVG Repo Mixer Tools -->
<svg version="1.1" id="Icons" xmlns="http://www.w3.org/2000/svg" xmlns:xlink="http://www.w3.org/1999/xlink" 
	 viewBox="0 0 32 32" xml:space="preserve">
<style type="text/css">
	.st0{fill:none;stroke:#000000;stroke-width:2;stroke-linecap:round;stroke-linejoin:round;stroke-miterlimit:10;}
</style>
<path class="st0" d="M25,29H7c-1.1,0-2-0.9-2-2V5c0-1.1,0.9-2,2-2h18c1.1,0,2,0.9,2,2v22C27,28.1,26.1,29,25,29z"/>
<line class="st0" x1="5" y1="23" x2="27" y2="23"/>
<line class="st0" x1="15" y1="26" x2="17" y2="26"/>
<path class="st0" d="M11.9,16.4C10.2,16.1,9,15.2,9,12.9C9,9.1,12.1,6,16,6s7,3.1,7,6.9c0,2.3-1.2,3.2-2.9,3.5"/>
<g>
	<path class="st0" d="M15.4,20h1.2c1.9,0,3.5-1.5,3.5-3.4v-1.9c-1.2-0.2-2.6-0.4-4.1-0.4s-2.8,0.1-4.1,0.4v1.9
		C11.9,18.5,13.5,20,15.4,20z"/>
</g>
</svg>